HIERARCHY
ROOT pelvis
{
	OFFSET 0.000000 0.000000 0.000000
	CHANNELS 6 Xposition Yposition Zposition Zrotation Xrotation Yrotation
	JOINT lfemur
	{
		OFFSET 11.446000 0.000000 0.000000
		CHANNELS 3 Zrotation Xrotation Yrotation
		JOINT ltibia
		{
			OFFSET 0.000000 -42.030400 0.000000
			CHANNELS 3 Zrotation Xrotation Yrotation
			JOINT lfoot
			{
				OFFSET 0.000000 -39.930200 0.000000
				CHANNELS 3 Zrotation Xrotation Yrotation
				JOINT ltoes
				{
					OFFSET 0.000000 0.000000 11.775800
					CHANNELS 3 Zrotation Xrotation Yrotation
					End Site
					{
					    OFFSET 0.000000 0.000000 5.000000
					}
				}
			}
		}
	}
	JOINT rfemur
	{
		OFFSET -11.446000 0.000000 0.000000
		CHANNELS 3 Zrotation Xrotation Yrotation
		JOINT rtibia
		{
			OFFSET 0.000000 -42.030400 0.000000
			CHANNELS 3 Zrotation Xrotation Yrotation
			JOINT rfoot
			{
				OFFSET 0.000000 -39.930200 0.000000
				CHANNELS 3 Zrotation Xrotation Yrotation
				JOINT rtoes
				{
					OFFSET 0.000000 0.000000 11.775800
					CHANNELS 3 Zrotation Xrotation Yrotation
					End Site
					{
					    OFFSET 0.000000 0.000000 5.000000
					}
				}
			}
		}
	}
	JOINT thorax
	{
		OFFSET 0.000000 11.255600 -5.000000
		CHANNELS 3 Zrotation Xrotation Yrotation
		JOINT head
		{
			OFFSET 0.000000 43.799300 0.000000
			CHANNELS 3 Zrotation Xrotation Yrotation
			End Site
			{
			    OFFSET 0.000000 5.000000 0.000000
			}
		}
		JOINT lclavicle
		{
			OFFSET 0.000000 39.863000 0.000000
			CHANNELS 3 Zrotation Xrotation Yrotation
			JOINT lhumerus
			{
				OFFSET 17.380600 4.958300 0.000000
				CHANNELS 3 Zrotation Xrotation Yrotation
				JOINT lradius
				{
					OFFSET 0.000000 -27.561300 0.000000
					CHANNELS 3 Zrotation Xrotation Yrotation
					JOINT lhand
					{
						OFFSET 0.000000 -26.933000 0.000000
						CHANNELS 3 Zrotation Xrotation Yrotation
						End Site
						{
						    OFFSET 0.000000 -5.000000 0.000000
						}
					}
				}
			}
		}
		JOINT rclavicle
		{
			OFFSET 0.000000 39.863000 0.000000
			CHANNELS 3 Zrotation Xrotation Yrotation
			JOINT rhumerus
			{
				OFFSET -17.380600 4.958300 0.000000
				CHANNELS 3 Zrotation Xrotation Yrotation
				JOINT rradius
				{
					OFFSET 0.000000 -27.561300 0.000000
					CHANNELS 3 Zrotation Xrotation Yrotation
					JOINT rhand
					{
						OFFSET 0.000000 -26.933000 0.000000
						CHANNELS 3 Zrotation Xrotation Yrotation
						End Site
						{
						    OFFSET 0.000000 -5.000000 0.000000
						}
					}
				}
			}
		}
	}
}
MOTION
Frames:	8
Frame Time:	0.0333333
-58.413100 76.086200 6.476000 1.627092 -3.348656 -115.080629 -3.903089 -42.237723 2.518140 0.000000 66.035034 -0.000000 0.000000 -8.351787 5.202048 -0.000000 -1.419598 0.000000 -4.861083 -29.877294 -7.751560 -0.000000 73.322472 -0.000000 0.000000 -14.566238 -6.458295 0.000000 -29.569920 -0.000000 -6.394317 13.627634 0.934228 12.900581 18.877250 7.893509 -10.828866 0.000000 0.043910 30.372503 1.912325 -20.181583 -180.000033 -45.831968 160.000806 39.921303 1.254941 0.000000 24.889674 -0.000000 1.059285 -49.540674 1.672547 35.788211 180.000036 -51.410854 -170.287382 -11.632708 0.446121 -0.000000 
-58.630800 76.628300 6.286100 2.272743 -3.326477 -115.437909 -3.343707 -42.062401 2.755146 -0.000000 65.076430 0.000000 0.000000 -7.859603 5.066853 -0.000000 -1.411014 0.000000 -4.370303 -29.292516 -8.073069 -0.000000 71.140219 -0.000000 0.000000 -14.504744 -6.880543 -0.000000 -29.566809 0.000000 -6.318209 13.280564 1.029383 12.763994 18.805580 8.100160 -9.976566 -0.000000 0.018725 30.710261 2.142105 -19.042803 -180.000036 -45.840234 160.025795 40.068809 1.760373 0.000000 24.619832 0.000000 1.010622 -49.333980 1.499539 36.080807 -180.000035 -51.631673 -170.090538 -12.173467 0.628338 0.000000 
-58.783600 77.019900 6.210400 2.736174 -3.317218 -115.686604 -3.334650 -41.817317 2.242267 -0.000000 64.277578 -0.000000 0.000000 -7.775447 5.222405 0.000000 -1.416700 -0.000000 -4.160284 -28.641830 -8.472254 -0.000000 69.172482 -0.000000 -0.000000 -14.770111 -6.946579 0.000000 -29.567287 -0.000000 -6.120587 13.123733 0.899544 12.472855 18.846513 8.224178 -9.343128 -0.000000 -0.193782 31.331478 2.313996 -17.636220 -180.000036 -45.666952 160.559707 40.156713 1.860409 0.000000 24.336335 0.000000 1.303351 -49.177237 1.462092 36.109723 -180.000037 -51.789720 -171.236432 -10.992097 0.229042 -0.000000 
-58.876600 77.252300 6.174700 3.134297 -3.515122 -115.829626 -3.514644 -41.958590 1.753114 -0.000000 63.954210 0.000000 -0.000000 -7.361429 5.099131 0.000000 -1.432835 -0.000000 -4.191213 -28.232405 -8.340716 -0.000000 67.701088 -0.000000 0.000000 -15.160330 -6.194012 0.000000 -29.572372 -0.000000 -6.059424 12.898352 0.970119 12.197892 18.546554 8.259984 -8.865116 0.000000 -0.636976 32.206070 2.486864 -17.039632 180.000036 -45.329517 160.628448 40.552924 1.740563 0.000000 24.272235 0.000000 1.319534 -49.229964 1.445708 35.847201 180.000035 -51.521192 -172.129055 -10.594552 0.094784 -0.000000 
-58.955900 77.392700 6.157400 3.439066 -3.630556 -116.083430 -3.260463 -42.058459 2.064160 -0.000000 63.700987 -0.000000 0.000000 -7.346124 4.982056 -0.000000 -1.434928 -0.000000 -4.019814 -27.833696 -7.807468 -0.000000 66.519445 0.000000 0.000000 -16.026613 -5.654749 -0.000000 -29.573848 -0.000000 -6.007654 12.518244 1.104461 12.130215 18.636505 7.872204 -8.550063 0.000000 -0.356552 32.878077 1.818483 -16.928777 -180.000032 -45.550946 160.743578 40.203676 1.717002 -0.000000 24.362980 0.000000 1.419596 -49.388955 1.527357 36.024922 -180.000035 -51.623366 -169.998458 -12.305803 0.674358 0.000000 
-59.095700 77.485900 6.222600 3.625250 -3.891432 -116.204538 -3.303042 -41.973487 2.352755 0.000000 63.254040 -0.000000 0.000000 -7.595293 4.834720 -0.000000 -1.440687 -0.000000 -4.214017 -27.532911 -8.134372 0.000000 65.571578 0.000000 0.000000 -16.788349 -5.834624 -0.000000 -29.571983 -0.000000 -6.047067 12.410120 1.175465 12.077203 18.441079 7.992514 -8.374331 0.000000 -0.256801 33.302312 1.104081 -16.986465 180.000037 -45.503815 161.216794 40.485725 1.579681 0.000000 24.014819 0.000000 1.385255 -49.210538 1.537187 35.970850 180.000035 -51.692656 -170.129432 -11.853743 0.523405 -0.000000 
-59.231900 77.594000 6.341300 3.815533 -4.174025 -116.245389 -3.496975 -41.878477 2.442683 0.000000 62.787914 -0.000000 0.000000 -7.837491 4.530134 -0.000000 -1.445788 0.000000 -4.490774 -27.489382 -8.448402 -0.000000 65.026290 0.000000 -0.000000 -17.138800 -5.997998 0.000000 -29.569319 -0.000000 -6.073504 12.419735 1.201311 12.108254 18.105800 7.889741 -8.370272 0.000000 -0.190593 33.419351 0.430730 -16.969023 180.000036 -45.364800 161.270955 40.094555 1.834194 -0.000000 23.642420 -0.000000 1.217546 -49.118728 1.388647 35.767394 180.000037 -51.602369 -171.718755 -10.393277 0.028990 -0.000000 
-59.293900 77.722900 6.436700 4.094443 -4.382228 -116.323951 -3.539251 -41.887014 2.566492 -0.000000 62.317252 -0.000000 0.000000 -7.993716 4.417133 -0.000000 -1.444068 0.000000 -4.513155 -27.638234 -8.419270 -0.000000 64.560601 -0.000000 -0.000000 -17.228032 -6.258090 -0.000000 -29.568479 0.000000 -6.165044 12.365857 1.245570 12.421325 17.863991 7.813534 -8.256067 0.000000 0.045311 33.082686 -0.123205 -17.134215 180.000033 -45.525088 160.679409 39.778507 1.899235 -0.000000 23.528662 0.000000 1.314019 -49.206826 1.586147 35.586594 180.000034 -51.634820 -171.546812 -10.349070 0.012960 -0.000000 
